<?xml version="1.0" encoding="utf-8"?>
<!-- Generator: Adobe Illustrator 25.2.3, SVG Export Plug-In . SVG Version: 6.00 Build 0)  -->
<svg xmlns="http://www.w3.org/2000/svg" xmlns:xlink="http://www.w3.org/1999/xlink" id="Layer_21" x="0px" y="0px" viewBox="0 0 128 128" xml:space="preserve">
     <defs>
        <clipPath id="cheese">
            <path d="M42.2,45.95l-9.71,6.27l-4.07,7.99c0,0,0.78,2.66,2.04,4.07c1.25,1.41,11.74,11.46,19.25,17.88  c5.86,5.01,18.35,15.64,18.35,15.64s0.51,5.34,1.1,9.09c0.47,2.98,0.5,7.95,3.64,7.81c3.96-0.18,1.68-8.2,4.82-8.12  c6.27,0.16,0.05,17.12,6.79,17.03c5.37-0.07,1.96-9.34,4.65-10.92c1.46-0.86,4.36,2.79,9.09,4.86c5.84,2.55,9.4,4.48,11.28,3.6  c3.97-1.86-4.4-45.23-5.34-52.59c-0.94-7.36-5.62-45.16-5.94-46.41s-6.74-1.41-6.74-1.41l-9.87,3.45l-14.1,1.88l-16.6,9.87  L42.2,45.95z"/>
        </clipPath>
    </defs>
    <path style="fill:#FF8E00;" d="M20.24,47.26c0,0-5.48,3.45-6.11,6.89c-0.63,3.45,0.63,7.52,2.35,10.18s3.76,4.86,6.27,5.8  s4.7,0.78,4.7,0.78s5.8,6.58,16.13,15.51S67.08,106,81.96,114.3s20.21,10.34,24.28,10.34s3.92-6.11,3.45-7.99  S83.06,85.64,83.06,85.64L20.24,47.26z"/>
    <path style="fill:#F5B03E;" d="M31.21,62.46l-3.92-4.23c0,0-4.07-7.68-7.83-7.68s-5.33,3.6-5.33,3.6s-0.47-3.92,4.23-11.43  s10.65-13.47,15.98-17.23s11.9-8.15,16.29-10.65S64.57,9.2,70.06,7.32c5.48-1.88,17.39-4.23,22.87-3.13  c5.48,1.1,7.83,4.86,7.83,8.77s-0.94,6.58-1.72,7.36s-5.95,5.17-5.95,5.17L31.21,62.46z"/>
    <path style="fill:#CB6C22;" d="M39.75,44.38c-3.08,1.74-7.05,2.71-10.4,8.23c-2.79,4.6-3.53,9.31-1.54,9.67  c1.99,0.36,3.5-6.58,6.15-9.22c4.25-4.25,7.69-4.7,10.13-6.96s5.11-8.4,15.28-13.83c11.85-6.33,18.93-4.66,21.7-5.7  c3.62-1.36,4.6-3.58,9.13-4.52c4.79-0.99,8.12,0.92,8.12,0.92s1.09-2.53-0.36-3.71c-1.45-1.18-4.12-2.1-8.58-1.19  c-4.88,0.99-8.5,4.25-9.49,4.34s-11.12-0.45-23.15,6.42S42.46,42.84,39.75,44.38z"/>
    <image
        height="128"
        width="128"
        x="0"
        y="0"
        clip-path="url(#cheese)"
        href="/galaxy.svg"
    />
    <path style="fill:#FCC12B;" d="M36,31.03c0.09,2.16,3.87,1.79,5.36,1.64c1.19-0.12,4.17-0.37,4.17-2.31s-2.6-1.93-4.54-1.86  C39.12,28.57,35.92,29.32,36,31.03z"/>
    <path style="fill:#FCC12B;" d="M56.31,18.31c0,1.42,1.56,1.56,2.53,1.64c0.97,0.07,2.23-0.3,2.31-1.41  c0.07-1.12-0.89-1.79-2.31-1.86C57.35,16.59,56.31,17.11,56.31,18.31z"/>
    <path style="fill:#FCC12B;" d="M65.61,21.73c1.43,1.55,3.57-0.52,4.32-1.49c0.74-0.97,0.89-2.46,0.07-3.2  c-0.82-0.74-2.38,0.07-3.42,1.04S64.72,20.76,65.61,21.73z"/>
    <path style="fill:#FCC12B;" d="M81.76,13.84c1.74,1.97,4.61-1.34,5.8-2.46c1.19-1.12,2.16-2.68,1.04-3.94  c-1.12-1.26-3.65,0.52-4.61,1.64C83.02,10.19,80.64,12.58,81.76,13.84z"/>
    <path style="fill:#FCC12B;" d="M26.92,47.25c1.69,0.4,2.24-1.6,2.53-3.13c0.3-1.56,0.3-3.05-0.97-3.27  c-1.44-0.25-2.23,1.19-2.46,2.6C25.83,44.72,25.36,46.88,26.92,47.25z"/>
    <!-- <path fill="white" d="M42.2,45.95l-9.71,6.27l-4.07,7.99c0,0,0.78,2.66,2.04,4.07c1.25,1.41,11.74,11.46,19.25,17.88  c5.86,5.01,18.35,15.64,18.35,15.64s0.51,5.34,1.1,9.09c0.47,2.98,0.5,7.95,3.64,7.81c3.96-0.18,1.68-8.2,4.82-8.12  c6.27,0.16,0.05,17.12,6.79,17.03c5.37-0.07,1.96-9.34,4.65-10.92c1.46-0.86,4.36,2.79,9.09,4.86c5.84,2.55,9.4,4.48,11.28,3.6  c3.97-1.86-4.4-45.23-5.34-52.59c-0.94-7.36-5.62-45.16-5.94-46.41s-6.74-1.41-6.74-1.41l-9.87,3.45l-14.1,1.88l-16.6,9.87  L42.2,45.95z"/> -->
</svg>
